# xmcd CD database file
# Copyright (C) 1993-1998 Ti Kan
#
# Track frame offsets:
#	150
#	23882
#	44527
#	67119
#	89753
#	116480
#	133727
#	152812
#	166686
#	179318
#	196015
#	209525
#	221152
#	235166
#	249668
#	264083
#	279922
#	292084
#	304924
#
# Disc length: 4211 seconds
#
# Revision: 1
# Processed by: cddbd v1.4b41PL1 Copyright (c) Steve Scherf et al.
# Submitted via: EasyCD 2.21 - (C) 1996 Greg Leichner
#
DISCID=1e107113
DTITLE=Ella Fitzgerald/Louis Armstrong * Louis Armstrong - Ella and Louis (1-7) 
DTITLE=* Louis And The Good Book
DYEAR=1900
DGENRE=
TTITLE0=Stampin' At The Savoy
TTITLE1=A Foggy Day
TTITLE2=Don't Be That Way
TTITLE3=Summertime
TTITLE4=Cheek To Cheek
TTITLE5=Can't We Be Friends
TTITLE6=Let's Call The Whole Thing Off
TTITLE7=Nobody Knows The Trouble I've Seen
TTITLE8=Shadrack
TTITLE9=Go Down Moses
TTITLE10=Rock My Soul (In The Bosom of Abraham)
TTITLE11=Ezekiel Saw De Wheel
TTITLE12=On My Way (Got on My Travelin' Shoes)
TTITLE13=Down By The Riverside
TTITLE14=Swing Low, Sweet Chariot
TTITLE15=Sometimes I FeelLike A Motherless Child
TTITLE16=Jonah And The Whale
TTITLE17=Didn't It Rain
TTITLE18=This Train
EXTD=
EXTT0=
EXTT1=
EXTT2=
EXTT3=
EXTT4=
EXTT5=
EXTT6=
EXTT7=
EXTT8=
EXTT9=
EXTT10=
EXTT11=
EXTT12=
EXTT13=
EXTT14=
EXTT15=
EXTT16=
EXTT17=
EXTT18=
PLAYORDER=
